<?xml version="1.0" encoding="UTF-8" standalone="no"?>
<!-- Generator: Gravit.io -->

<svg
   xmlns:dc="http://purl.org/dc/elements/1.1/"
   xmlns:cc="http://creativecommons.org/ns#"
   xmlns:rdf="http://www.w3.org/1999/02/22-rdf-syntax-ns#"
   xmlns:svg="http://www.w3.org/2000/svg"
   xmlns="http://www.w3.org/2000/svg"
   xmlns:sodipodi="http://sodipodi.sourceforge.net/DTD/sodipodi-0.dtd"
   xmlns:inkscape="http://www.inkscape.org/namespaces/inkscape"
   style="isolation:isolate"
   viewBox="0 0 25 25"
   width="25"
   height="25"
   id="svg2"
   version="1.1"
   inkscape:version="0.91 r13725"
   sodipodi:docname="Skischule.svg">
  <metadata
     id="metadata27">
    <rdf:RDF>
      <cc:Work
         rdf:about="">
        <dc:format>image/svg+xml</dc:format>
        <dc:type
           rdf:resource="http://purl.org/dc/dcmitype/StillImage" />
        <dc:title></dc:title>
      </cc:Work>
    </rdf:RDF>
  </metadata>
  <sodipodi:namedview
     pagecolor="#ffffff"
     bordercolor="#666666"
     borderopacity="1"
     objecttolerance="10"
     gridtolerance="10"
     guidetolerance="10"
     inkscape:pageopacity="0"
     inkscape:pageshadow="2"
     inkscape:window-width="1600"
     inkscape:window-height="837"
     id="namedview25"
     showgrid="false"
     inkscape:zoom="13.320869"
     inkscape:cx="-5.3086505"
     inkscape:cy="11.143182"
     inkscape:window-x="-8"
     inkscape:window-y="-8"
     inkscape:window-maximized="1"
     inkscape:current-layer="svg2" />
  <defs
     id="defs4">
    <clipPath
       id="_clipPath_pe1RUpthBpdEKe3dE3rg4KM7MFFXYmVe">
      <rect
         width="283.465"
         height="283.465"
         id="rect7"
         x="0"
         y="0" />
    </clipPath>
  </defs>
  <g
     clip-path="url(#_clipPath_pe1RUpthBpdEKe3dE3rg4KM7MFFXYmVe)"
     id="g9"
     transform="matrix(0.08819444,0,0,0.08819444,0.05308263,-4.3121578e-4)">
    <circle
       vector-effect="non-scaling-stroke"
       cx="140.73228"
       cy="141.73228"
       r="141.73228"
       id="circle11"
       style="fill:#f04c4c" />
    <path
       d="m 126,68.5 c -19.516,2.637 -27.25,4.25 -36.5,7.5 -9.25,3.25 -21,8 -24,11 -3,3 -1.25,19.75 0.25,27.25 1.5,7.5 8.104,34.229 17.75,52.75 12.5,24 26.5,37.25 36,45.5 q 9.5,8.25 23.5,15 7.5,-3.5 15.5,-9.25 C 166.5,212.5 180.5,201 193.25,182 206,163 216,142 219,121 q 3,-21 2.5,-33.5 -21,-11.5 -37,-14.5 c -16,-3 -20.25,-4.5 -26.25,-4.75 -8.996,-0.375 -23,-1 -32.25,0.25 z"
       vector-effect="non-scaling-stroke"
       stroke-miterlimit="3"
       id="path13"
       inkscape:connector-curvature="0"
       style="fill:#f04c4c;stroke:#ffffff;stroke-width:4;stroke-linecap:square;stroke-linejoin:miter;stroke-miterlimit:3" />
    <path
       d="m 90.75,112.75 13.5,0 0,83.25 -14.625,-19.125 1.125,-64.125 z"
       id="path15"
       inkscape:connector-curvature="0"
       style="fill:#ffffff" />
    <path
       d="m 181.125,112.375 13.875,0 -0.375,64.875 L 181.5,196 181.125,112.375 Z"
       id="path17"
       inkscape:connector-curvature="0"
       style="fill:#ffffff" />
    <path
       d="m 133.75,132.5 18.5,0 0,21.5 20.25,0 0,17.5 -20.5,0 0,21.25 -17.75,0 0,-21.5 -20,0 0,-17.25 19.5,0 0,-21.5 z"
       id="path19"
       inkscape:connector-curvature="0"
       style="fill:#ffffff" />
    <line
       x1="65.25"
       y1="112.25"
       x2="219.75"
       y2="112.25"
       vector-effect="non-scaling-stroke"
       stroke-miterlimit="3"
       id="line21"
       style="stroke:#ffffff;stroke-width:4;stroke-linecap:square;stroke-linejoin:miter;stroke-miterlimit:3" />
    <line
       x1="64.25"
       y1="96.75"
       x2="221.25"
       y2="96.75"
       vector-effect="non-scaling-stroke"
       stroke-miterlimit="3"
       id="line23"
       style="stroke:#ffffff;stroke-width:4;stroke-linecap:square;stroke-linejoin:miter;stroke-miterlimit:3" />
  </g>
</svg>
